<svg xmlns="http://www.w3.org/2000/svg" version="1.1" width="180" height="180" viewBox="0 0 180 180" id="svg1" xml:space="preserve" xmlns:svg="http://www.w3.org/2000/svg"><defs id="defs1"></defs><g id="layer1" transform="translate(586.71039,-390.02643)"><rect style="fill:#ffffff;fill-opacity:1;stroke:none;stroke-width:5" id="rect1" width="180" height="180" x="-586.71039" y="390.02643"></rect><path id="path2-9-4-1-1" style="fill:none;stroke:#6a4c93;stroke-width:24;stroke-linecap:butt;stroke-dasharray:none;stroke-opacity:1" d="m -535.65689,450.15854 c 26.27572,-25.25505 62.57613,-40.87576 102.6726,-40.87576 55.15789,0 103.13232,29.55996 127.70902,73.09632"></path><path id="path2-9-4-5" style="fill:none;stroke:#d8973c;stroke-width:10;stroke-dasharray:none;stroke-opacity:1" d="m -534.7251,547.21878 c 15.46553,-40.33904 55.1887,-69.04352 101.7525,-69.04352 32.4444,0 61.56774,13.93581 81.47822,36.03306"></path><path id="path2-9-4-9-5" style="fill:none;stroke:#5b8a72;stroke-width:18;stroke-dasharray:none;stroke-opacity:1" d="m -540.08451,516.25967 c 20.1866,-37.00609 60.58541,-62.25801 107.13042,-62.25801 37.47096,0 70.95859,16.36583 93.12386,42.05497"></path><g id="path3" transform="matrix(1.3199458,0,0,1.3199458,-502.34684,376.35771)" style="stroke-width:0.757607"><path style="color:#000000;-inkscape-font-specification:'Times Bold';fill:#000000;stroke-width:0.757607;-inkscape-stroke:none" d="m -33.800968,52.209288 c 0,-3.305441 1.152608,-6.110052 3.457835,-8.413839 2.35534,-2.353879 5.186755,-3.530813 8.494247,-3.530813 3.257383,0 6.038686,1.176934 8.343908,3.530813 2.355334,2.303787 3.5330069,5.108398 3.5330069,8.413839 0,3.305435 -1.1776729,6.13509 -3.5330069,8.488956 -2.305222,2.303787 -5.086525,3.455683 -8.343908,3.455683 -3.307492,0 -6.138907,-1.151896 -8.494247,-3.455683 -2.305227,-2.353866 -3.457835,-5.183521 -3.457835,-8.488956 z" id="path13"></path><path style="color:#000000;-inkscape-font-specification:'Times Bold';fill:#ffffff;stroke-width:0.757607;-inkscape-stroke:none" d="m -21.849609,30.263672 c -5.679745,0 -11.551719,2.450691 -15.5625,6.458984 -3.996665,3.994168 -6.388672,9.856225 -6.388672,15.486328 0,5.630102 2.370056,11.460701 6.3125,15.486328 l 0.07617,0.07617 0.07617,0.07617 c 4.028059,3.939895 9.85705,6.306641 15.486328,6.306641 5.614885,0 11.443038,-2.414261 15.4140621,-6.382813 4.0107779,-4.008278 6.46289065,-9.881845 6.46289065,-15.5625 0,-5.643033 -2.45023635,-11.500156 -6.46679685,-15.474609 -3.9517599,-3.994012 -9.7776179,-6.470703 -15.4101559,-6.470703 z m 0,20 c 0.84863,0 0.541452,-0.142353 1.199218,0.529297 l 0.07617,0.07617 0.07617,0.07422 c 0.646247,0.632104 0.525391,0.335406 0.525391,1.265625 0,0.930209 0.09832,0.716567 -0.601563,1.416016 -0.639415,0.639017 -0.375516,0.529297 -1.27539,0.529297 -0.92352,0 -0.875226,0.007 -1.421875,-0.535156 -0.538491,-0.541939 -0.529297,-0.493183 -0.529297,-1.410157 0,-0.980772 -0.08644,-0.726442 0.527344,-1.339843 0.699894,-0.699461 0.488595,-0.605469 1.423828,-0.605469 z" id="path14"></path></g><path style="color:#000000;-inkscape-font-specification:'Times Bold';fill:#0a0000;stroke-width:0.999999;-inkscape-stroke:none" d="m -547.18293,448.258 c 0,-3.66206 1.27697,-6.76926 3.83089,-9.32159 2.60946,-2.60784 5.74636,-3.91176 9.41069,-3.91176 3.60881,0 6.69019,1.30392 9.24412,3.91176 2.60944,2.55233 3.91417,5.65953 3.91417,9.32159 0,3.66205 -1.30473,6.797 -3.91417,9.40481 -2.55393,2.55235 -5.63531,3.82851 -9.24412,3.82851 -3.66433,0 -6.80123,-1.27616 -9.41069,-3.82851 -2.55392,-2.60781 -3.83089,-5.74276 -3.83089,-9.40481 z" id="path5"></path><rect style="fill:#ffffff;fill-opacity:1;stroke:none;stroke-width:10;stroke-dasharray:none;stroke-opacity:1" id="rect15" width="20.804615" height="73.911133" x="-529.97015" y="468.65134"></rect><path style="color:#000000;-inkscape-font-specification:'Times Bold';fill:#0a0000;stroke-width:0.999999;-inkscape-stroke:none" d="m -556.57805,551.33882 c 3.10236,-0.51697 5.22805,-1.29246 6.37707,-2.32642 1.72354,-1.55095 2.5853,-4.33691 2.5853,-8.35788 v -51.87057 c 0,-3.56144 -0.60323,-5.97402 -1.80971,-7.23775 -1.20647,-1.32118 -3.59069,-2.2977 -7.15266,-2.92957 v -4.30819 h 33.86742 v 67.03539 c 0,3.84863 0.57451,6.31867 1.72353,7.41008 1.14902,1.09141 3.30344,1.95305 6.46325,2.58491 v 4.22202 h -42.0542 z" id="path9"></path></g></svg>